<svg width="1000" height="1000" viewBox="0 0 1000 1000" fill="none" xmlns="http://www.w3.org/2000/svg">
<path d="M496 182.309C498.475 180.88 501.525 180.88 504 182.309L773.128 337.691C775.603 339.12 777.128 341.761 777.128 344.619V655.381C777.128 658.239 775.603 660.88 773.128 662.309L504 817.691C501.525 819.12 498.475 819.12 496 817.691L226.872 662.309C224.397 660.88 222.872 658.239 222.872 655.381V344.619C222.872 341.761 224.397 339.12 226.872 337.691L496 182.309Z" fill="#D9D9D9" fill-opacity="0.5"/>
<path d="M375.647 472.919C376.885 472.204 378.41 472.204 379.647 472.919L473.457 527.08C474.695 527.795 475.457 529.115 475.457 530.544V638.867C475.457 640.296 474.695 641.616 473.457 642.331L379.647 696.492C378.41 697.206 376.885 697.206 375.647 696.492L281.837 642.331C280.6 641.616 279.837 640.296 279.837 638.867V530.544C279.837 529.115 280.6 527.795 281.837 527.08L375.647 472.919Z" fill="white"/>
<path d="M610.941 463.507C612.179 462.793 613.704 462.793 614.941 463.507L708.751 517.668C709.989 518.383 710.751 519.703 710.751 521.133V629.455C710.751 630.884 709.989 632.205 708.751 632.919L614.941 687.08C613.704 687.795 612.179 687.795 610.941 687.08L517.131 632.919C515.894 632.205 515.131 630.884 515.131 629.455V521.133C515.131 519.704 515.894 518.383 517.131 517.668L610.941 463.507Z" fill="white"/>
<path d="M498 247.037C499.238 246.322 500.762 246.322 502 247.037L595.81 301.198C597.048 301.913 597.81 303.233 597.81 304.662V412.985C597.81 414.414 597.048 415.734 595.81 416.449L502 470.61C500.762 471.324 499.238 471.324 498 470.61L404.19 416.449C402.952 415.734 402.19 414.414 402.19 412.985V304.662C402.19 303.233 402.952 301.913 404.19 301.198L498 247.037Z" fill="white"/>
<path d="M498 529.39C499.238 528.675 500.762 528.675 502 529.39L595.81 583.551C597.048 584.265 597.81 585.586 597.81 587.015V695.337C597.81 696.766 597.048 698.087 595.81 698.801L502 752.963C500.762 753.677 499.238 753.677 498 752.963L404.19 698.801C402.952 698.087 402.19 696.766 402.19 695.337V587.015C402.19 585.586 402.952 584.265 404.19 583.551L498 529.39Z" fill="#2196F3"/>
<path d="M375.647 322.331C376.885 321.616 378.41 321.616 379.647 322.331L473.457 376.492C474.695 377.206 475.457 378.527 475.457 379.956V488.278C475.457 489.707 474.695 491.028 473.457 491.742L379.647 545.904C378.41 546.618 376.885 546.618 375.647 545.904L281.837 491.743C280.6 491.028 279.837 489.707 279.837 488.278V379.956C279.837 378.527 280.6 377.206 281.837 376.492L375.647 322.331Z" fill="#2196F3"/>
<path d="M610.941 312.919C612.179 312.204 613.704 312.204 614.941 312.919L708.751 367.08C709.989 367.795 710.751 369.115 710.751 370.544V478.867C710.751 480.296 709.989 481.616 708.751 482.331L614.941 536.492C613.704 537.206 612.179 537.206 610.941 536.492L517.131 482.331C515.894 481.616 515.131 480.296 515.131 478.867V370.544C515.131 369.115 515.894 367.795 517.131 367.08L610.941 312.919Z" fill="#2196F3"/>
<path d="M498 378.801C499.238 378.087 500.762 378.087 502 378.801L595.81 432.962C597.048 433.677 597.81 434.997 597.81 436.426V544.749C597.81 546.178 597.048 547.498 595.81 548.213L502 602.374C500.762 603.089 499.238 603.089 498 602.374L404.19 548.213C402.952 547.498 402.19 546.178 402.19 544.749V436.426C402.19 434.997 402.952 433.677 404.19 432.962L498 378.801Z" fill="white"/>
</svg>
